<svg width="26" height="26" viewBox="0 0 26 26" fill="none" xmlns="http://www.w3.org/2000/svg">
<mask id="mask0_2020_38" style="mask-type:alpha" maskUnits="userSpaceOnUse" x="0" y="0" width="26" height="26">
<rect width="26" height="26" fill="#D9D9D9"/>
</mask>
<g mask="url(#mask0_2020_38)">
<path d="M11.4834 14.8917L8.96677 12.3749C8.81673 12.225 8.62814 12.1483 8.401 12.1447C8.17404 12.1412 7.98202 12.218 7.82494 12.3749C7.66803 12.532 7.58958 12.7223 7.58958 12.9458C7.58958 13.1693 7.66803 13.3596 7.82494 13.5167L10.7979 16.4896C10.9938 16.6854 11.2223 16.7832 11.4834 16.7832C11.7444 16.7832 11.9729 16.6854 12.1688 16.4896L18.196 10.4625C18.3458 10.3125 18.4226 10.1239 18.4262 9.89675C18.4296 9.66979 18.3529 9.47777 18.196 9.32069C18.0389 9.16379 17.8486 9.08534 17.625 9.08534C17.4015 9.08534 17.2112 9.16379 17.0541 9.32069L11.4834 14.8917ZM5.75008 22.2083C5.20282 22.2083 4.7396 22.0187 4.36044 21.6395C3.98127 21.2604 3.79169 20.7972 3.79169 20.2499V5.75002C3.79169 5.20276 3.98127 4.73954 4.36044 4.36038C4.7396 3.98121 5.20282 3.79163 5.75008 3.79163H20.25C20.7972 3.79163 21.2604 3.98121 21.6396 4.36038C22.0188 4.73954 22.2084 5.20276 22.2084 5.75002V20.2499C22.2084 20.7972 22.0188 21.2604 21.6396 21.6395C21.2604 22.0187 20.7972 22.2083 20.25 22.2083H5.75008Z" fill="#0D00A4"/>
</g>
</svg>
