<svg width="26" height="26" viewBox="0 0 26 26" fill="none" xmlns="http://www.w3.org/2000/svg">
<g id="check_box_outline_blank">
<mask id="mask0_10_962" style="mask-type:alpha" maskUnits="userSpaceOnUse" x="0" y="0" width="26" height="26">
<rect id="Bounding box" width="26" height="26" fill="#D9D9D9"/>
</mask>
<g mask="url(#mask0_10_962)">
<path id="check_box_outline_blank_2" d="M5.75008 22.2083C5.20282 22.2083 4.7396 22.0187 4.36044 21.6395C3.98127 21.2604 3.79169 20.7972 3.79169 20.2499V5.75002C3.79169 5.20276 3.98127 4.73954 4.36044 4.36038C4.7396 3.98121 5.20282 3.79163 5.75008 3.79163H20.25C20.7972 3.79163 21.2604 3.98121 21.6396 4.36038C22.0188 4.73954 22.2084 5.20276 22.2084 5.75002V20.2499C22.2084 20.7972 22.0188 21.2604 21.6396 21.6395C21.2604 22.0187 20.7972 22.2083 20.25 22.2083H5.75008ZM5.75008 20.5833H20.25C20.3334 20.5833 20.4097 20.5485 20.4791 20.479C20.5486 20.4097 20.5834 20.3333 20.5834 20.2499V5.75002C20.5834 5.6666 20.5486 5.59023 20.4791 5.5209C20.4097 5.45138 20.3334 5.41663 20.25 5.41663H5.75008C5.66667 5.41663 5.59029 5.45138 5.52096 5.5209C5.45144 5.59023 5.41669 5.6666 5.41669 5.75002V20.2499C5.41669 20.3333 5.45144 20.4097 5.52096 20.479C5.59029 20.5485 5.66667 20.5833 5.75008 20.5833Z" fill="#848487"/>
</g>
</g>
</svg>
