<svg width="24" height="24" viewBox="0 0 24 24" fill="none" xmlns="http://www.w3.org/2000/svg">
<g id="checklist">
<mask id="mask0_1_668" style="mask-type:alpha" maskUnits="userSpaceOnUse" x="0" y="0" width="24" height="24">
<rect id="Bounding box" width="24" height="24" fill="#D9D9D9"/>
</mask>
<g mask="url(#mask0_1_668)">
<path id="checklist_2" d="M5.52505 16.1749L9.07505 12.6249C9.27505 12.4249 9.50838 12.3291 9.77505 12.3374C10.0417 12.3457 10.275 12.4499 10.475 12.6499C10.6584 12.8499 10.75 13.0832 10.75 13.3499C10.75 13.6166 10.6584 13.8499 10.475 14.0499L6.25005 18.2999C6.05005 18.4999 5.81672 18.5999 5.55005 18.5999C5.28338 18.5999 5.05005 18.4999 4.85005 18.2999L2.70005 16.1499C2.51672 15.9666 2.42505 15.7332 2.42505 15.4499C2.42505 15.1666 2.51672 14.9332 2.70005 14.7499C2.88338 14.5666 3.11672 14.4749 3.40005 14.4749C3.68338 14.4749 3.91672 14.5666 4.10005 14.7499L5.52505 16.1749ZM5.52505 8.17491L9.07505 4.62491C9.27505 4.42491 9.50838 4.32908 9.77505 4.33741C10.0417 4.34575 10.275 4.44991 10.475 4.64991C10.6584 4.84991 10.75 5.08325 10.75 5.34991C10.75 5.61658 10.6584 5.84991 10.475 6.04991L6.25005 10.2999C6.05005 10.4999 5.81672 10.5999 5.55005 10.5999C5.28338 10.5999 5.05005 10.4999 4.85005 10.2999L2.70005 8.14991C2.51672 7.96658 2.42505 7.73325 2.42505 7.44991C2.42505 7.16658 2.51672 6.93325 2.70005 6.74991C2.88338 6.56658 3.11672 6.47491 3.40005 6.47491C3.68338 6.47491 3.91672 6.56658 4.10005 6.74991L5.52505 8.17491ZM14 16.9999C13.7167 16.9999 13.4792 16.9041 13.2875 16.7124C13.0959 16.5207 13 16.2832 13 15.9999C13 15.7166 13.0959 15.4791 13.2875 15.2874C13.4792 15.0957 13.7167 14.9999 14 14.9999H21C21.2834 14.9999 21.5209 15.0957 21.7125 15.2874C21.9042 15.4791 22 15.7166 22 15.9999C22 16.2832 21.9042 16.5207 21.7125 16.7124C21.5209 16.9041 21.2834 16.9999 21 16.9999H14ZM14 8.99991C13.7167 8.99991 13.4792 8.90408 13.2875 8.71241C13.0959 8.52075 13 8.28325 13 7.99991C13 7.71658 13.0959 7.47908 13.2875 7.28741C13.4792 7.09575 13.7167 6.99991 14 6.99991H21C21.2834 6.99991 21.5209 7.09575 21.7125 7.28741C21.9042 7.47908 22 7.71658 22 7.99991C22 8.28325 21.9042 8.52075 21.7125 8.71241C21.5209 8.90408 21.2834 8.99991 21 8.99991H14Z" fill="#636366"/>
</g>
</g>
</svg>
