<svg width="26" height="26" viewBox="0 0 26 26" fill="none" xmlns="http://www.w3.org/2000/svg">
<g id="radio_button_unchecked">
<mask id="mask0_10_682" style="mask-type:alpha" maskUnits="userSpaceOnUse" x="0" y="0" width="26" height="26">
<rect id="Bounding box" width="26" height="26" fill="#D9D9D9"/>
</mask>
<g mask="url(#mask0_10_682)">
<path id="radio_button_unchecked_2" d="M13 23.8334C11.5135 23.8334 10.1112 23.549 8.79317 22.9803C7.47511 22.4115 6.32551 21.6367 5.34437 20.6557C4.36342 19.6746 3.58856 18.525 3.01981 17.2069C2.45106 15.8889 2.16669 14.4866 2.16669 13.0001C2.16669 11.5015 2.45106 10.0931 3.01981 8.77508C3.58856 7.45703 4.36342 6.3105 5.34437 5.3355C6.32551 4.3605 7.47511 3.58862 8.79317 3.01987C10.1112 2.45112 11.5135 2.16675 13 2.16675C14.4986 2.16675 15.907 2.45112 17.225 3.01987C18.5431 3.58862 19.6896 4.3605 20.6646 5.3355C21.6396 6.3105 22.4115 7.45703 22.9802 8.77508C23.549 10.0931 23.8334 11.5015 23.8334 13.0001C23.8334 14.4866 23.549 15.8889 22.9802 17.2069C22.4115 18.525 21.6396 19.6746 20.6646 20.6557C19.6896 21.6367 18.5431 22.4115 17.225 22.9803C15.907 23.549 14.4986 23.8334 13 23.8334ZM13 22.0278C15.5157 22.0278 17.6492 21.1491 19.4006 19.3918C21.152 17.6344 22.0277 15.5038 22.0277 13.0001C22.0277 10.4844 21.152 8.35087 19.4006 6.59948C17.6492 4.84809 15.5157 3.97239 13 3.97239C10.4963 3.97239 8.3657 4.84809 6.60835 6.59948C4.85101 8.35087 3.97233 10.4844 3.97233 13.0001C3.97233 15.5038 4.85101 17.6344 6.60835 19.3918C8.3657 21.1491 10.4963 22.0278 13 22.0278Z" fill="#848487"/>
</g>
</g>
</svg>
