<svg width="26" height="26" viewBox="0 0 26 26" fill="none" xmlns="http://www.w3.org/2000/svg">
<g id="radio_button_checked">
<mask id="mask0_2020_352" style="mask-type:alpha" maskUnits="userSpaceOnUse" x="0" y="0" width="26" height="26">
<rect id="Bounding box" width="26" height="26" fill="#D9D9D9"/>
</mask>
<g mask="url(#mask0_2020_352)">
<path id="radio_button_checked_2" d="M13 18.1639C14.4385 18.1639 15.6588 17.6629 16.6609 16.6608C17.663 15.6587 18.164 14.4384 18.164 13C18.164 11.5615 17.663 10.3412 16.6609 9.33911C15.6588 8.33702 14.4385 7.83598 13 7.83598C11.5615 7.83598 10.3412 8.33702 9.33917 9.33911C8.33708 10.3412 7.83604 11.5615 7.83604 13C7.83604 14.4384 8.33708 15.6587 9.33917 16.6608C10.3412 17.6629 11.5615 18.1639 13 18.1639ZM13 23.8333C11.5135 23.8333 10.1112 23.5489 8.79317 22.9802C7.47511 22.4114 6.32551 21.6366 5.34437 20.6556C4.36342 19.6745 3.58856 18.5249 3.01981 17.2068C2.45106 15.8888 2.16669 14.4865 2.16669 13C2.16669 11.5013 2.45106 10.093 3.01981 8.77496C3.58856 7.4569 4.36342 6.31038 5.34437 5.33538C6.32551 4.36038 7.47511 3.5885 8.79317 3.01975C10.1112 2.451 11.5135 2.16663 13 2.16663C14.4986 2.16663 15.907 2.451 17.225 3.01975C18.5431 3.5885 19.6896 4.36038 20.6646 5.33538C21.6396 6.31038 22.4115 7.4569 22.9802 8.77496C23.549 10.093 23.8334 11.5013 23.8334 13C23.8334 14.4865 23.549 15.8888 22.9802 17.2068C22.4115 18.5249 21.6396 19.6745 20.6646 20.6556C19.6896 21.6366 18.5431 22.4114 17.225 22.9802C15.907 23.5489 14.4986 23.8333 13 23.8333ZM13 22.0276C15.5157 22.0276 17.6492 21.149 19.4006 19.3916C21.152 17.6343 22.0277 15.5037 22.0277 13C22.0277 10.4843 21.152 8.35074 19.4006 6.59936C17.6492 4.84797 15.5157 3.97227 13 3.97227C10.4963 3.97227 8.3657 4.84797 6.60835 6.59936C4.85101 8.35074 3.97233 10.4843 3.97233 13C3.97233 15.5037 4.85101 17.6343 6.60835 19.3916C8.3657 21.149 10.4963 22.0276 13 22.0276Z" fill="#0D00A4"/>
</g>
</g>
</svg>
